<svg width="16" height="16" viewBox="0 0 16 16" xmlns="http://www.w3.org/2000/svg">
<path d="M8.2881 14.7891C6.91216 14.7891 5.73011 14.5206 4.74193 13.9837C3.75376 13.4344 2.99699 12.6603 2.47163 11.6614C1.94627 10.6501 1.68359 9.4577 1.68359 8.08428C1.68359 6.6734 1.95253 5.45605 2.49039 4.43223C3.04077 3.39592 3.80379 2.60309 4.77946 2.05372C5.76763 1.49186 6.91842 1.21094 8.23181 1.21094C9.27002 1.21094 10.2144 1.39822 11.065 1.77279C11.9281 2.14736 12.6286 2.70921 13.1664 3.45835C13.7043 4.20749 14.0233 5.1564 14.1233 6.30508H10.9149C10.7648 5.70577 10.4833 5.2438 10.0706 4.91917C9.65779 4.58206 9.08239 4.4135 8.34439 4.4135C7.55635 4.4135 6.93092 4.5883 6.46811 4.9379C6.00529 5.2875 5.67382 5.73074 5.47368 6.26762C5.28605 6.8045 5.19224 7.36011 5.19224 7.93445C5.19224 8.50879 5.29231 9.07689 5.49244 9.63874C5.70509 10.2006 6.04282 10.6688 6.50564 11.0434C6.98096 11.4055 7.61264 11.5865 8.40068 11.5865C8.876 11.5865 9.28878 11.5178 9.63902 11.3805C9.98926 11.2307 10.277 11.0184 10.5021 10.7437C10.7398 10.4565 10.9024 10.1132 10.9899 9.71365H14.2734C14.1984 10.8374 13.8732 11.78 13.2978 12.5416C12.7224 13.2908 11.9906 13.8526 11.1025 14.2272C10.2269 14.6018 9.28878 14.7891 8.2881 14.7891Z"/>
</svg>
